<svg width="32" height="32" viewBox="0 0 32 32" fill="none" xmlns="http://www.w3.org/2000/svg">
<g clip-path="url(#clip0_919_52642)">
<g clip-path="url(#clip1_919_52642)">
<path opacity="0.6" d="M15.9998 22.375C15.8403 22.375 15.7067 22.3211 15.5991 22.2132C15.4914 22.1054 15.4375 21.9719 15.4375 21.8125V16.5625H10.1875C10.0281 16.5625 9.89456 16.5086 9.78681 16.4007C9.67894 16.2928 9.625 16.1592 9.625 15.9998C9.625 15.8403 9.67894 15.7067 9.78681 15.5991C9.89456 15.4914 10.0281 15.4375 10.1875 15.4375H15.4375V10.1875C15.4375 10.0281 15.4914 9.89456 15.5993 9.78681C15.7072 9.67894 15.8408 9.625 16.0002 9.625C16.1597 9.625 16.2933 9.67894 16.4009 9.78681C16.5086 9.89456 16.5625 10.0281 16.5625 10.1875V15.4375H21.8125C21.9719 15.4375 22.1054 15.4914 22.2132 15.5993C22.3211 15.7072 22.375 15.8408 22.375 16.0002C22.375 16.1597 22.3211 16.2933 22.2132 16.4009C22.1054 16.5086 21.9719 16.5625 21.8125 16.5625H16.5625V21.8125C16.5625 21.9719 16.5086 22.1054 16.4007 22.2132C16.2928 22.3211 16.1592 22.375 15.9998 22.375Z" fill="#3F3F46"/>
</g>
</g>
<defs>
<clipPath id="clip0_919_52642">
<rect width="32" height="32" rx="10" fill="white"/>
</clipPath>
<clipPath id="clip1_919_52642">
<path d="M0 12.8C0 8.31958 0 6.07937 0.871948 4.36808C1.63893 2.86278 2.86278 1.63893 4.36808 0.871948C6.07937 0 8.31958 0 12.8 0H19.2C23.6804 0 25.9206 0 27.6319 0.871948C29.1372 1.63893 30.3611 2.86278 31.1281 4.36808C32 6.07937 32 8.31958 32 12.8V19.2C32 23.6804 32 25.9206 31.1281 27.6319C30.3611 29.1372 29.1372 30.3611 27.6319 31.1281C25.9206 32 23.6804 32 19.2 32H12.8C8.31958 32 6.07937 32 4.36808 31.1281C2.86278 30.3611 1.63893 29.1372 0.871948 27.6319C0 25.9206 0 23.6804 0 19.2V12.8Z" fill="white"/>
</clipPath>
</defs>
</svg>
