<svg width="32" height="32" viewBox="0 0 32 32" fill="none" xmlns="http://www.w3.org/2000/svg">
<g clip-path="url(#clip0_919_51766)">
<g clip-path="url(#clip1_919_51766)">
<path opacity="0.6" d="M15.9998 22.5625C15.8403 22.5625 15.7067 22.5086 15.5991 22.4007C15.4914 22.2929 15.4375 22.1594 15.4375 22V19C15.4375 18.8406 15.4914 18.7071 15.5993 18.5993C15.7072 18.4914 15.8408 18.4375 16.0002 18.4375C16.1597 18.4375 16.2933 18.4914 16.4009 18.5993C16.5086 18.7071 16.5625 18.8406 16.5625 19V19.9375H22C22.1594 19.9375 22.2929 19.9914 22.4007 20.0993C22.5086 20.2072 22.5625 20.3408 22.5625 20.5002C22.5625 20.6597 22.5086 20.7933 22.4007 20.9009C22.2929 21.0086 22.1594 21.0625 22 21.0625H16.5625V22C16.5625 22.1594 16.5086 22.2929 16.4007 22.4007C16.2928 22.5086 16.1592 22.5625 15.9998 22.5625ZM10 21.0625C9.84062 21.0625 9.70706 21.0086 9.59931 20.9007C9.49144 20.7928 9.4375 20.6592 9.4375 20.4998C9.4375 20.3403 9.49144 20.2067 9.59931 20.0991C9.70706 19.9914 9.84062 19.9375 10 19.9375H13C13.1594 19.9375 13.2929 19.9914 13.4007 20.0993C13.5086 20.2072 13.5625 20.3408 13.5625 20.5002C13.5625 20.6597 13.5086 20.7933 13.4007 20.9009C13.2929 21.0086 13.1594 21.0625 13 21.0625H10ZM12.9998 18.0625C12.8403 18.0625 12.7067 18.0086 12.5991 17.9007C12.4914 17.7929 12.4375 17.6594 12.4375 17.5V16.5625H10C9.84062 16.5625 9.70706 16.5086 9.59931 16.4007C9.49144 16.2928 9.4375 16.1592 9.4375 15.9998C9.4375 15.8403 9.49144 15.7067 9.59931 15.5991C9.70706 15.4914 9.84062 15.4375 10 15.4375H12.4375V14.5C12.4375 14.3406 12.4914 14.2071 12.5993 14.0993C12.7072 13.9914 12.8408 13.9375 13.0002 13.9375C13.1597 13.9375 13.2933 13.9914 13.4009 14.0993C13.5086 14.2071 13.5625 14.3406 13.5625 14.5V17.5C13.5625 17.6594 13.5086 17.7929 13.4007 17.9007C13.2928 18.0086 13.1592 18.0625 12.9998 18.0625ZM16 16.5625C15.8406 16.5625 15.7071 16.5086 15.5993 16.4007C15.4914 16.2928 15.4375 16.1592 15.4375 15.9998C15.4375 15.8403 15.4914 15.7067 15.5993 15.5991C15.7071 15.4914 15.8406 15.4375 16 15.4375H22C22.1594 15.4375 22.2929 15.4914 22.4007 15.5993C22.5086 15.7072 22.5625 15.8408 22.5625 16.0002C22.5625 16.1597 22.5086 16.2933 22.4007 16.4009C22.2929 16.5086 22.1594 16.5625 22 16.5625H16ZM18.9998 13.5625C18.8403 13.5625 18.7067 13.5086 18.5991 13.4007C18.4914 13.2929 18.4375 13.1594 18.4375 13V10C18.4375 9.84062 18.4914 9.70706 18.5993 9.59931C18.7072 9.49144 18.8408 9.4375 19.0002 9.4375C19.1597 9.4375 19.2933 9.49144 19.4009 9.59931C19.5086 9.70706 19.5625 9.84062 19.5625 10V10.9375H22C22.1594 10.9375 22.2929 10.9914 22.4007 11.0993C22.5086 11.2072 22.5625 11.3408 22.5625 11.5002C22.5625 11.6597 22.5086 11.7933 22.4007 11.9009C22.2929 12.0086 22.1594 12.0625 22 12.0625H19.5625V13C19.5625 13.1594 19.5086 13.2929 19.4007 13.4007C19.2928 13.5086 19.1592 13.5625 18.9998 13.5625ZM10 12.0625C9.84062 12.0625 9.70706 12.0086 9.59931 11.9007C9.49144 11.7928 9.4375 11.6592 9.4375 11.4998C9.4375 11.3403 9.49144 11.2067 9.59931 11.0991C9.70706 10.9914 9.84062 10.9375 10 10.9375H16C16.1594 10.9375 16.2929 10.9914 16.4007 11.0993C16.5086 11.2072 16.5625 11.3408 16.5625 11.5002C16.5625 11.6597 16.5086 11.7933 16.4007 11.9009C16.2929 12.0086 16.1594 12.0625 16 12.0625H10Z" fill="#3F3F46"/>
</g>
</g>
<defs>
<clipPath id="clip0_919_51766">
<rect width="32" height="32" rx="10" fill="white"/>
</clipPath>
<clipPath id="clip1_919_51766">
<path d="M0 12.8C0 8.31958 0 6.07937 0.871948 4.36808C1.63893 2.86278 2.86278 1.63893 4.36808 0.871948C6.07937 0 8.31958 0 12.8 0H19.2C23.6804 0 25.9206 0 27.6319 0.871948C29.1372 1.63893 30.3611 2.86278 31.1281 4.36808C32 6.07937 32 8.31958 32 12.8V19.2C32 23.6804 32 25.9206 31.1281 27.6319C30.3611 29.1372 29.1372 30.3611 27.6319 31.1281C25.9206 32 23.6804 32 19.2 32H12.8C8.31958 32 6.07937 32 4.36808 31.1281C2.86278 30.3611 1.63893 29.1372 0.871948 27.6319C0 25.9206 0 23.6804 0 19.2V12.8Z" fill="white"/>
</clipPath>
</defs>
</svg>
